<svg width="512" height="512" viewBox="0 0 512 512" xmlns="http://www.w3.org/2000/svg">
  <defs>
    <filter id="favicon-shadow" x="-50%" y="-50%" width="200%" height="200%">
      <feGaussianBlur in="SourceAlpha" stdDeviation="15" result="blur"/>
      <feOffset in="blur" dx="0" dy="15" result="offsetBlur"/>
      <feComponentTransfer in="offsetBlur" result="shadowMatrix">
        <feFuncA type="linear" slope="0.8"/>
      </feComponentTransfer>
      <feMerge>
        <feMergeNode in="shadowMatrix"/>
        <feMergeNode in="SourceGraphic"/>
      </feMerge>
    </filter>
    <clipPath id="circle-clip">
      <circle cx="256" cy="256" r="236"/>
    </clipPath>
  </defs>

  <g filter="url(#favicon-shadow)">
    <g clip-path="url(#circle-clip)">
      <rect width="512" height="512" fill="#87CEEB"/>
      
      <g transform="translate(256, 500)" stroke-linecap="round" fill="none" stroke-width="40">
        <path d="M-220 0 A 220 220 0 0 1 220 0" stroke="#F44336"/> <path d="M-180 0 A 180 180 0 0 1 180 0" stroke="#FF9800"/> <path d="M-140 0 A 140 140 0 0 1 140 0" stroke="#FFEB3B"/> <path d="M-100 0 A 100 100 0 0 1 100 0" stroke="#4CAF50"/> </g>

      <path d="M0 400 C 80 350, 180 350, 256 400 C 332 350, 432 350, 512 400 L 512 512 L 0 512 Z" fill="#E0F7FA"/>

      <g transform="translate(256, 280)">
        <circle cx="0" cy="0" r="90" fill="#FFD700" stroke="#FFA000" stroke-width="5"/>
        <g stroke="#FFA000" stroke-width="5" fill="#FFA000">
           <path d="M0 -110 L15 -90 L-15 -90 Z"/>
           <path d="M80 -70 L95 -50 L65 -35 Z"/>
           <path d="M110 0 L90 15 L90 -15 Z"/>
           <path d="M80 70 L65 35 L95 50 Z"/>
           <path d="M0 110 L-15 90 L15 90 Z"/>
           <path d="M-80 70 L-95 50 L-65 35 Z"/>
           <path d="M-110 0 L-90 -15 L-90 15 Z"/>
           <path d="M-80 -70 L-65 -35 L-95 -50 Z"/>
        </g>
        <circle cx="-35" cy="-10" r="7" fill="#3E2723"/>
        <circle cx="35" cy="-10" r="7" fill="#3E2723"/>
        <path d="M-35 20 Q0 50 35 20" fill="none" stroke="#3E2723" stroke-width="5" stroke-linecap="round"/>
         <ellipse cx="-45" cy="10" rx="10" ry="7" fill="#FFCDD2" opacity="0.6"/>
         <ellipse cx="45" cy="10" rx="10" ry="7" fill="#FFCDD2" opacity="0.6"/>
      </g>

      <g transform="translate(340, 360) rotate(-20)">
        <rect x="-40" y="-50" width="80" height="100" rx="5" fill="#E53935" stroke="#B71C1C" stroke-width="3"/>
        <rect x="-30" y="-40" width="60" height="80" fill="white"/>
        <line x1="-35" y1="-50" x2="-35" y2="50" stroke="#B71C1C" stroke-width="2"/>
      </g>
    </g>
    <circle cx="256" cy="256" r="236" fill="none" stroke="#6CAED1" stroke-width="10"/>
  </g>
</svg>